<svg width="104" height="112" viewBox="0 0 104 112" fill="none" xmlns="http://www.w3.org/2000/svg">
<path d="M101.662 34.35C100.921 33.6032 100.039 33.011 99.0667 32.6076C98.0947 32.2042 97.0524 31.9977 96 32H80V28C80 20.5739 77.05 13.452 71.799 8.20101C66.548 2.94999 59.4261 0 52 0C44.5739 0 37.452 2.94999 32.201 8.20101C26.95 13.452 24 20.5739 24 28V32H8C5.87827 32 3.84344 32.8429 2.34315 34.3431C0.842854 35.8434 0 37.8783 0 40V94C0 103.75 8.25 112 18 112H86C90.7162 112.001 95.2458 110.158 98.62 106.863C100.318 105.243 101.67 103.295 102.595 101.138C103.52 98.9813 103.998 96.6593 104 94.3125V40C104.003 38.9505 103.798 37.9107 103.397 36.9409C102.996 35.9711 102.406 35.0905 101.662 34.35ZM32 28C32 22.6957 34.1071 17.6086 37.8579 13.8579C41.6086 10.1071 46.6957 8 52 8C57.3043 8 62.3914 10.1071 66.1421 13.8579C69.8929 17.6086 72 22.6957 72 28V32H32V28ZM80 52C80 59.4261 77.05 66.548 71.799 71.799C66.548 77.05 59.4261 80 52 80C44.5739 80 37.452 77.05 32.201 71.799C26.95 66.548 24 59.4261 24 52V48C24 46.9391 24.4214 45.9217 25.1716 45.1716C25.9217 44.4214 26.9391 44 28 44C29.0609 44 30.0783 44.4214 30.8284 45.1716C31.5786 45.9217 32 46.9391 32 48V52C32 57.3043 34.1071 62.3914 37.8579 66.1421C41.6086 69.8929 46.6957 72 52 72C57.3043 72 62.3914 69.8929 66.1421 66.1421C69.8929 62.3914 72 57.3043 72 52V48C72 46.9391 72.4214 45.9217 73.1716 45.1716C73.9217 44.4214 74.9391 44 76 44C77.0609 44 78.0783 44.4214 78.8284 45.1716C79.5786 45.9217 80 46.9391 80 48V52Z" fill="black"/>
</svg>
