<svg width="107" height="75" viewBox="0 0 107 75" fill="none" xmlns="http://www.w3.org/2000/svg">
<path d="M90.6667 10.6667C90.6667 4.8 85.8667 0 80 0H64V10.6667H80V24.8L61.44 48H42.6667V21.3333H21.3333C9.54667 21.3333 0 30.88 0 42.6667V58.6667H10.6667C10.6667 67.52 17.8133 74.6667 26.6667 74.6667C35.52 74.6667 42.6667 67.52 42.6667 58.6667H66.56L90.6667 28.5333V10.6667ZM26.6667 64C23.7333 64 21.3333 61.6 21.3333 58.6667H32C32 61.6 29.6 64 26.6667 64Z" fill="black"/>
<path d="M16 5.3335H42.6667V16.0002H16V5.3335ZM90.6667 42.6668C81.8133 42.6668 74.6667 49.8135 74.6667 58.6668C74.6667 67.5202 81.8133 74.6668 90.6667 74.6668C99.52 74.6668 106.667 67.5202 106.667 58.6668C106.667 49.8135 99.52 42.6668 90.6667 42.6668ZM90.6667 64.0002C87.7333 64.0002 85.3333 61.6002 85.3333 58.6668C85.3333 55.7335 87.7333 53.3335 90.6667 53.3335C93.6 53.3335 96 55.7335 96 58.6668C96 61.6002 93.6 64.0002 90.6667 64.0002Z" fill="black"/>
</svg>
